<svg xmlns="http://www.w3.org/2000/svg" xmlns:xlink="http://www.w3.org/1999/xlink" width="608" height="521" version="1.1" viewBox="0 0 608 521"><title>Untitled 4</title><desc>Created with Sketch.</desc><defs><linearGradient id="linearGradient-1" x1="44.925%" x2="49.064%" y1="38.814%" y2="81.695%"><stop offset=".423%" stop-color="#6100FF" stop-opacity=".47"/><stop offset="100%" stop-color="#FFF" stop-opacity="0"/></linearGradient><linearGradient id="linearGradient-2" x1="62.534%" x2="57.143%" y1="59.084%" y2="48.152%"><stop offset="0%" stop-color="#FFF"/><stop offset="100%" stop-color="#FFF" stop-opacity="0"/></linearGradient><linearGradient id="linearGradient-3" x1="44.53%" x2="57.406%" y1="24.237%" y2="36.61%"><stop offset="0%" stop-color="#FFF"/><stop offset="51.042%" stop-color="#FFF" stop-opacity=".656"/><stop offset="100%" stop-color="#FFF" stop-opacity="0"/></linearGradient></defs><g id="Page-1" fill="none" fill-rule="evenodd" stroke="none" stroke-width="1"><g id="logo" transform="translate(-315.000000, 1.000000)"><polygon id="Path" stroke="#FF60EF" points="622.783 519 315 341.09 622.783 164 924 341.09"/><polygon id="Path" stroke="#FF60EF" stroke-opacity=".5" points="624.217 603 182 347.411 624.217 93 1057 347.411"/><polygon id="Path" stroke="#FF60EF" stroke-opacity=".2" points="626.179 722 0 360.166 626.179 0 1239 360.166"/><polygon id="Path" fill="#6100FF" fill-opacity=".5" fill-rule="nonzero" points="620 243.5 432.5 135 620 27 803.5 135"/><polygon id="Path" fill="#6100FF" fill-opacity=".5" fill-rule="nonzero" points="620 454.5 432.5 346 620 238 803.5 346"/><path id="Shape" stroke="#6100FF" stroke-width="11" d="M438.5,349 L615.5,245 M799.5,349 L624,245"/><polygon id="Path" stroke="#6100FF" stroke-linejoin="round" stroke-width="11" points="437.5 348.34 437.5 138.19 618.993 34.341 799.5 138.181 799.5 348.348 618.993 454.13"/><polygon id="Path" fill="#FF00E5" fill-rule="nonzero" points="525.5 324.5 525.5 216.5 618.5 270 618.5 377.5"/><polygon id="Path" fill="#FF00E5" fill-rule="nonzero" points="711 325.5 711 217.5 618 271 618 378.5"/><line id="Path" x1="620.5" x2="618.5" y1="178" y2="37" stroke="#6100FF" stroke-width="11"/><polygon id="Path" fill="#FF60EF" fill-rule="nonzero" points="619 164 525.5 217.5 619 270.5 711 217.5"/><polygon id="Path" fill="#6100FF" fill-opacity=".45" fill-rule="nonzero" points="620 247 438.5 141 438.5 347.5 616.5 453.5" opacity=".5"/><polygon id="Path" fill="url(#linearGradient-1)" fill-rule="nonzero" points="614 249.5 442.5 150 442.5 345 614 445" opacity=".5"/><polygon id="Path" fill="#6100FF" fill-opacity=".2" fill-rule="nonzero" points="620.5 246.17 797.5 140 797.5 346.83 623.913 453" opacity=".5"/><polygon id="Path" fill="url(#linearGradient-2)" fill-opacity=".5" fill-rule="nonzero" points="620 243.5 432.5 135 620 27 803.5 135"/><polygon id="Path" fill="#AF7EFF" fill-rule="nonzero" points="625 250.5 794 148.5 794 344.5 625 444.5" opacity=".5"/><polygon id="Path" fill="url(#linearGradient-3)" fill-rule="nonzero" points="625.5 250 794 149 794 345.5 625.5 444" opacity=".5"/><line id="Path" x1="619.5" x2="619.5" y1="453" y2="244" stroke="#6100FF" stroke-width="11"/><polyline id="Path" stroke="#6100FF" stroke-linecap="round" stroke-linejoin="round" stroke-width="11" points="439 142 620 246.5 799.5 139"/></g></g></svg>