<svg xmlns="http://www.w3.org/2000/svg" width="373" height="434" fill="none" viewBox="0 0 373 434"><path fill="#6100FF" fill-opacity=".5" d="M188 216.5L0.5 108L188 0L371.5 108L188 216.5Z"/><path fill="#6100FF" fill-opacity=".5" d="M188 427.5L0.5 319L188 211L371.5 319L188 427.5Z"/><path stroke="#FF60EF" stroke-width="11" d="M6.5 322L183.5 218M367.5 322L192 218"/><path stroke="#FF60EF" stroke-linejoin="round" stroke-width="11" d="M5.5 321.34V111.19L186.993 7.34091L367.5 111.181V321.348L186.993 427.13L5.5 321.34Z"/><circle r="16.313" fill="#fff" stroke="#fff" stroke-width="2" transform="matrix(0.991445 -0.130526 -0.277482 0.960731 181.222 206.3)"/><ellipse cx="207.133" cy="203.01" fill="#fff" stroke="#fff" stroke-width="2" rx="8.283" ry="7.801" transform="matrix(0.490361 0.605476 -0.87152 0.795864 282.49 -83.9723)"/><ellipse cx="222.272" cy="211.193" fill="#fff" stroke="#fff" stroke-width="2" rx="6.68" ry="6.291" transform="matrix(0.490361 0.605476 -0.87152 0.795864 297.337 -91.4684)"/><ellipse cx="240.235" cy="213.238" fill="#fff" stroke="#fff" stroke-width="2" rx="5.611" ry="5.284" transform="matrix(0.490361 0.605476 -0.87152 0.795864 308.274 -101.927)"/><ellipse cx="259.623" cy="210.346" fill="#fff" stroke="#fff" stroke-width="2" rx="5.077" ry="4.781" transform="matrix(0.490361 0.605476 -0.87152 0.795864 315.635 -114.256)"/><ellipse cx="276.653" cy="204.712" fill="#fff" stroke="#fff" stroke-width="2" rx="4.008" ry="3.774" transform="matrix(0.490361 0.605476 -0.87152 0.795864 319.404 -125.718)"/><ellipse cx="291.063" cy="196.031" fill="#fff" stroke="#fff" stroke-width="2" rx="4.008" ry="3.774" transform="matrix(0.490361 0.605476 -0.87152 0.795864 319.181 -136.214)"/><circle r="9.046" fill="#fff" stroke="#fff" stroke-width="2" transform="matrix(1.02722 -0.443483 0.0690813 0.862185 205.298 185.735)"/><circle r="7.488" fill="#fff" stroke="#fff" stroke-width="2" transform="matrix(1.02722 -0.443483 0.0690813 0.862185 226.267 172.052)"/><circle r="6.45" fill="#fff" stroke="#fff" stroke-width="2" transform="matrix(1.02722 -0.443483 0.0690813 0.862185 243.146 155.505)"/><circle r="5.931" fill="#fff" stroke="#fff" stroke-width="2" transform="matrix(1.02722 -0.443483 0.0690813 0.862185 256.041 137.436)"/><circle r="4.893" fill="#fff" stroke="#fff" stroke-width="2" transform="matrix(1.02722 -0.443483 0.0690813 0.862185 264.137 121.44)"/><circle r="4.893" fill="#fff" stroke="#fff" stroke-width="2" transform="matrix(1.02722 -0.443483 0.0690813 0.862185 266.901 107.745)"/><circle r="9.046" fill="#fff" stroke="#fff" stroke-width="2" transform="matrix(0.0114226 -0.894212 1.02948 -0.374734 165.091 191.424)"/><circle r="7.488" fill="#fff" stroke="#fff" stroke-width="2" transform="matrix(0.0114226 -0.894212 1.02948 -0.374734 159.985 174.803)"/><circle r="6.45" fill="#fff" stroke="#fff" stroke-width="2" transform="matrix(0.0114226 -0.894212 1.02948 -0.374734 149.493 163.376)"/><circle r="5.931" fill="#fff" stroke="#fff" stroke-width="2" transform="matrix(0.0114226 -0.894212 1.02948 -0.374734 135.219 156.56)"/><circle r="4.893" fill="#fff" stroke="#fff" stroke-width="2" transform="matrix(0.0114226 -0.894212 1.02948 -0.374734 120.892 153.921)"/><circle r="4.893" fill="#fff" stroke="#fff" stroke-width="2" transform="matrix(0.0114226 -0.894212 1.02948 -0.374734 106.505 155.924)"/><circle r="9.046" fill="#fff" stroke="#fff" stroke-width="2" transform="matrix(0.736029 -0.89728 0.719875 0.367326 188.165 180.328)"/><circle r="7.488" fill="#fff" stroke="#fff" stroke-width="2" transform="matrix(0.736029 -0.89728 0.719875 0.367326 199.711 159.791)"/><circle r="6.45" fill="#fff" stroke="#fff" stroke-width="2" transform="matrix(0.736029 -0.89728 0.719875 0.367326 204.845 140.608)"/><circle r="5.931" fill="#fff" stroke="#fff" stroke-width="2" transform="matrix(0.736029 -0.89728 0.719875 0.367326 204.689 123.351)"/><circle r="4.893" fill="#fff" stroke="#fff" stroke-width="2" transform="matrix(0.736029 -0.89728 0.719875 0.367326 201.095 110.285)"/><circle r="4.893" fill="#fff" stroke="#fff" stroke-width="2" transform="matrix(0.736029 -0.89728 0.719875 0.367326 193.681 101.877)"/><circle r="9.046" fill="#fff" stroke="#fff" stroke-width="2" transform="matrix(-0.736029 0.89728 -0.719875 -0.367326 173.436 233.553)"/><circle r="7.488" fill="#fff" stroke="#fff" stroke-width="2" transform="matrix(-0.736029 0.89728 -0.719875 -0.367326 161.891 254.089)"/><circle r="6.45" fill="#fff" stroke="#fff" stroke-width="2" transform="matrix(-0.736029 0.89728 -0.719875 -0.367326 156.756 273.273)"/><circle r="5.931" fill="#fff" stroke="#fff" stroke-width="2" transform="matrix(-0.736029 0.89728 -0.719875 -0.367326 156.912 290.53)"/><circle r="4.893" fill="#fff" stroke="#fff" stroke-width="2" transform="matrix(-0.736029 0.89728 -0.719875 -0.367326 160.506 303.596)"/><circle r="4.893" fill="#fff" stroke="#fff" stroke-width="2" transform="matrix(-0.736029 0.89728 -0.719875 -0.367326 167.921 312.004)"/><circle r="9.046" fill="#fff" stroke="#fff" stroke-width="2" transform="matrix(-1.02948 0.374734 0.0114225 -0.894212 155.755 228.594)"/><circle r="7.488" fill="#fff" stroke="#fff" stroke-width="2" transform="matrix(-1.02948 0.374734 0.0114225 -0.894212 134.321 241.016)"/><circle r="6.45" fill="#fff" stroke="#fff" stroke-width="2" transform="matrix(-1.02948 0.374734 0.0114225 -0.894212 116.568 256.718)"/><circle r="5.931" fill="#fff" stroke="#fff" stroke-width="2" transform="matrix(-1.02948 0.374734 0.0114225 -0.894212 102.515 274.307)"/><circle r="4.893" fill="#fff" stroke="#fff" stroke-width="2" transform="matrix(-1.02948 0.374734 0.0114225 -0.894212 93.2702 290.146)"/><circle r="4.893" fill="#fff" stroke="#fff" stroke-width="2" transform="matrix(-1.02948 0.374734 0.0114225 -0.894212 89.3695 304.04)"/><circle r="9.046" fill="#fff" stroke="#fff" stroke-width="2" transform="matrix(-0.0114226 0.894212 -1.02948 0.374734 195.615 224.142)"/><circle r="7.488" fill="#fff" stroke="#fff" stroke-width="2" transform="matrix(-0.0114226 0.894212 -1.02948 0.374734 200.722 240.763)"/><circle r="6.45" fill="#fff" stroke="#fff" stroke-width="2" transform="matrix(-0.0114226 0.894212 -1.02948 0.374734 211.213 252.19)"/><circle r="5.931" fill="#fff" stroke="#fff" stroke-width="2" transform="matrix(-0.0114226 0.894212 -1.02948 0.374734 225.487 259.006)"/><circle r="4.893" fill="#fff" stroke="#fff" stroke-width="2" transform="matrix(-0.0114226 0.894212 -1.02948 0.374734 239.815 261.645)"/><circle r="4.893" fill="#fff" stroke="#fff" stroke-width="2" transform="matrix(-0.0114226 0.894212 -1.02948 0.374734 254.201 259.642)"/><circle r="9.046" fill="#fff" stroke="#fff" stroke-width="2" transform="matrix(-0.688541 -0.404442 0.765422 -0.881174 154.994 209.991)"/><circle r="7.488" fill="#fff" stroke="#fff" stroke-width="2" transform="matrix(-0.688541 -0.404442 0.765422 -0.881174 136.725 206.167)"/><circle r="6.45" fill="#fff" stroke="#fff" stroke-width="2" transform="matrix(-0.688541 -0.404442 0.765422 -0.881174 116.985 208.388)"/><circle r="5.931" fill="#fff" stroke="#fff" stroke-width="2" transform="matrix(-0.688541 -0.404442 0.765422 -0.881174 96.9655 215.279)"/><circle r="4.893" fill="#fff" stroke="#fff" stroke-width="2" transform="matrix(-0.688541 -0.404442 0.765422 -0.881174 80.1625 224.059)"/><circle r="4.893" fill="#fff" stroke="#fff" stroke-width="2" transform="matrix(-0.688541 -0.404442 0.765422 -0.881174 66.9333 234.939)"/><path fill="#6100FF" fill-opacity=".45" d="M188 220L6.5 114V320.5L184.5 426.5L188 220Z" opacity=".5"/><path fill="url(#paint0_linear)" d="M182 222.5L10.5 123V318L182 418V222.5Z" opacity=".5"/><path fill="#6100FF" fill-opacity=".2" d="M188.5 219.17L365.5 113V319.83L191.913 426L188.5 219.17Z" opacity=".5"/><path fill="url(#paint1_linear)" fill-opacity=".5" d="M188 216.5L0.5 108L188 0L371.5 108L188 216.5Z"/><path fill="#AF7EFF" d="M193 223.5L362 121.5V317.5L193 417.5V223.5Z" opacity=".5"/><path fill="url(#paint2_linear)" d="M193.5 223L362 122V318.5L193.5 417V223Z" opacity=".5"/><path stroke="#FF60EF" stroke-width="11" d="M187.5 426L187.5 217"/><path stroke="#FF60EF" stroke-linecap="round" stroke-linejoin="round" stroke-width="11" d="M7 115L188 219.5L367.5 112"/><defs><linearGradient id="paint0_linear" x1="70.5" x2="91.5" y1="237.5" y2="364" gradientUnits="userSpaceOnUse"><stop offset=".004" stop-color="#6100FF" stop-opacity=".47"/><stop offset="1" stop-color="#fff" stop-opacity="0"/></linearGradient><linearGradient id="paint1_linear" x1="232.5" x2="212.5" y1="166" y2="96.5" gradientUnits="userSpaceOnUse"><stop stop-color="#fff"/><stop offset="1" stop-color="#fff" stop-opacity="0"/></linearGradient><linearGradient id="paint2_linear" x1="249.5" x2="316" y1="193.5" y2="230" gradientUnits="userSpaceOnUse"><stop stop-color="#fff"/><stop offset=".51" stop-color="#fff" stop-opacity=".656"/><stop offset="1" stop-color="#fff" stop-opacity="0"/></linearGradient></defs></svg>